<svg width="264" height="122" viewBox="0 0 264 122" fill="none" xmlns="http://www.w3.org/2000/svg">
<path d="M2.91301 18.72C2.91301 17.696 2.68901 16.736 2.24101 15.84C1.85701 14.88 1.18501 14.176 0.225006 13.728H14.817C17.057 13.728 19.137 14.048 21.057 14.688C23.041 15.264 24.737 16.16 26.145 17.376C27.617 18.528 28.769 19.968 29.601 21.696C30.433 23.424 30.849 25.376 30.849 27.552C30.849 29.984 30.273 32.288 29.121 34.464C28.033 36.64 26.593 38.56 24.801 40.224C27.617 41.696 29.825 43.84 31.425 46.656C33.089 49.408 33.921 52.384 33.921 55.584C33.921 57.824 33.473 59.968 32.577 62.016C31.745 64 30.561 65.728 29.025 67.2C27.489 68.672 25.665 69.856 23.553 70.752C21.505 71.584 19.265 72 16.833 72H0.225006C1.18501 71.488 1.85701 70.784 2.24101 69.888C2.68901 68.992 2.91301 68.032 2.91301 67.008V18.72ZM11.265 64.896H16.833C19.329 64.896 21.409 64.032 23.073 62.304C24.801 60.512 25.665 58.272 25.665 55.584C25.665 54.24 25.441 52.96 24.993 51.744C24.545 50.464 23.905 49.376 23.073 48.48C22.305 47.52 21.313 46.752 20.097 46.176C18.945 45.6 17.665 45.312 16.257 45.312C14.721 45.824 13.057 46.144 11.265 46.272V64.896ZM11.265 39.168C12.289 39.104 13.441 38.752 14.721 38.112C16.065 37.408 17.313 36.512 18.465 35.424C19.617 34.336 20.577 33.12 21.345 31.776C22.177 30.368 22.593 28.896 22.593 27.36C22.593 24.992 21.857 23.328 20.385 22.368C18.913 21.344 17.057 20.832 14.817 20.832H11.265V39.168ZM64.1588 30.048C64.1588 29.024 63.9348 28.064 63.4868 27.168C63.1028 26.272 62.4308 25.568 61.4708 25.056H75.1988C74.2388 25.568 73.5348 26.272 73.0868 27.168C72.6388 28.064 72.4148 29.024 72.4148 30.048V56.16C72.4148 56.736 72.5108 57.408 72.7028 58.176C72.9588 58.944 73.3428 59.584 73.8548 60.096C73.2148 60.416 72.6708 60.928 72.2228 61.632C71.7748 62.272 71.3588 62.944 70.9748 63.648C69.6948 66.208 67.8708 68.32 65.5028 69.984C63.1348 71.648 60.2868 72.48 56.9588 72.48C53.6308 72.48 50.7828 71.648 48.4148 69.984C46.0468 68.32 44.2228 66.208 42.9428 63.648C42.5588 62.944 42.1428 62.272 41.6948 61.632C41.2468 60.928 40.7028 60.416 40.0628 60.096C40.5748 59.584 40.9268 58.944 41.1188 58.176C41.3108 57.408 41.4068 56.736 41.4068 56.16V30.048C41.4068 29.024 41.1828 28.064 40.7348 27.168C40.3508 26.272 39.6788 25.568 38.7188 25.056H52.4468C51.4868 25.568 50.7828 26.272 50.3348 27.168C49.9508 28.064 49.7588 29.024 49.7588 30.048V57.6C49.8228 59.584 50.5588 61.312 51.9668 62.784C53.3748 64.192 55.0388 64.896 56.9588 64.896C58.8788 64.896 60.5108 64.192 61.8548 62.784C63.2628 61.312 64.0308 59.584 64.1588 57.6V30.048ZM112.004 24.96L113.828 36.192C112.036 34.336 109.988 33.184 107.684 32.736C105.38 32.288 103.108 32.064 100.868 32.064V67.008C100.868 68.032 101.06 68.992 101.444 69.888C101.892 70.784 102.596 71.488 103.556 72H89.8283C90.7883 71.488 91.4603 70.784 91.8443 69.888C92.2923 68.992 92.5163 68.032 92.5163 67.008V32.064C90.2763 32.064 88.0043 32.288 85.7003 32.736C83.3963 33.184 81.3483 34.336 79.5563 36.192L81.3803 24.96H112.004ZM118.331 72C119.291 71.488 119.963 70.784 120.347 69.888C120.795 68.992 121.019 68.032 121.019 67.008V29.952C121.019 28.928 120.795 27.968 120.347 27.072C119.963 26.176 119.291 25.472 118.331 24.96H132.059C131.099 25.472 130.395 26.176 129.947 27.072C129.563 27.968 129.371 28.928 129.371 29.952V64.896H137.915C139.643 64.896 141.307 64.672 142.907 64.224C144.571 63.712 145.979 62.752 147.131 61.344L144.635 72H118.331ZM151.294 72C152.254 71.488 152.926 70.784 153.31 69.888C153.758 68.992 153.982 68.032 153.982 67.008V29.952C153.982 28.928 153.758 27.968 153.31 27.072C152.926 26.176 152.254 25.472 151.294 24.96H178.846L180.478 35.616C179.198 34.08 177.662 33.12 175.87 32.736C174.078 32.288 172.254 32.064 170.398 32.064H162.334V47.712H169.054C171.294 47.712 173.054 46.944 174.334 45.408L172.99 56.256C172.414 55.488 171.646 54.912 170.686 54.528C169.79 54.144 168.798 53.952 167.71 53.952H162.334V64.896H171.742C173.406 64.896 175.038 64.672 176.638 64.224C178.302 63.712 179.742 62.752 180.958 61.344L178.366 72H151.294ZM188.257 29.952C188.257 28.928 188.033 27.968 187.585 27.072C187.201 26.176 186.529 25.472 185.569 24.96H199.873C202.177 24.96 204.321 25.312 206.305 26.016C208.289 26.656 210.017 27.616 211.489 28.896C212.961 30.176 214.113 31.712 214.945 33.504C215.777 35.296 216.193 37.312 216.193 39.552C216.193 42.496 215.297 45.312 213.505 48C211.777 50.688 209.537 52.896 206.785 54.624L211.873 65.472C212.513 66.88 213.281 68.192 214.177 69.408C215.073 70.624 216.225 71.488 217.633 72H203.809C204.385 71.488 204.705 70.784 204.769 69.888C204.897 68.928 204.737 67.968 204.289 67.008L199.777 57.408C198.689 57.6 197.633 57.696 196.609 57.696V67.008C196.609 68.032 196.801 68.992 197.185 69.888C197.633 70.784 198.337 71.488 199.297 72H185.569C186.529 71.488 187.201 70.784 187.585 69.888C188.033 68.992 188.257 68.032 188.257 67.008V29.952ZM196.609 51.072C197.697 51.072 198.881 50.784 200.161 50.208C201.505 49.568 202.753 48.736 203.905 47.712C205.057 46.624 206.017 45.376 206.785 43.968C207.553 42.56 207.937 41.024 207.937 39.36C207.937 36.928 207.169 35.104 205.633 33.888C204.097 32.672 202.177 32.064 199.873 32.064H196.609V51.072ZM224.639 13.728C225.983 13.728 227.071 14.24 227.903 15.264C228.799 16.288 229.247 17.44 229.247 18.72C229.247 19.744 229.023 20.768 228.575 21.792C228.191 22.752 227.615 23.616 226.847 24.384C226.143 25.152 225.311 25.792 224.351 26.304C223.455 26.752 222.495 26.976 221.471 26.976C222.175 26.464 222.879 25.792 223.583 24.96C224.287 24.128 224.639 23.456 224.639 22.944C223.359 22.944 222.271 22.496 221.375 21.6C220.479 20.704 220.031 19.616 220.031 18.336C220.031 17.056 220.447 15.968 221.279 15.072C222.111 14.176 223.231 13.728 224.639 13.728ZM246.403 24.576C248.579 24.576 250.883 24.768 253.315 25.152C253.827 25.28 254.371 25.344 254.947 25.344C255.587 25.344 256.227 25.088 256.867 24.576L255.427 36.288C254.595 35.008 253.379 33.984 251.779 33.216C250.243 32.448 248.643 32.064 246.979 32.064C245.507 32.064 244.131 32.448 242.851 33.216C241.571 33.92 240.931 35.104 240.931 36.768C240.931 37.728 241.443 38.56 242.467 39.264C243.491 39.904 244.451 40.448 245.347 40.896C247.907 42.112 250.339 43.36 252.643 44.64C255.011 45.856 256.995 47.712 258.595 50.208C260.131 52.704 260.899 55.424 260.899 58.368C260.899 60.864 260.451 63.008 259.555 64.8C258.659 66.592 257.475 68.064 256.003 69.216C254.531 70.368 252.803 71.232 250.819 71.808C248.835 72.384 246.755 72.672 244.579 72.672C242.915 72.672 241.123 72.544 239.203 72.288C237.347 72.096 235.651 71.744 234.115 71.232C233.091 70.912 232.259 71.072 231.619 71.712L234.403 60.192C234.787 61.088 235.363 61.856 236.131 62.496C236.899 63.072 237.763 63.552 238.723 63.936C239.683 64.256 240.675 64.512 241.699 64.704C242.723 64.832 243.683 64.896 244.579 64.896C245.539 64.896 246.499 64.768 247.459 64.512C248.419 64.192 249.283 63.744 250.051 63.168C250.819 62.592 251.427 61.92 251.875 61.152C252.387 60.32 252.643 59.392 252.643 58.368C252.643 56.64 252.131 55.232 251.107 54.144C250.147 52.992 248.931 52 247.459 51.168C245.987 50.272 244.387 49.472 242.659 48.768C240.931 48 239.331 47.136 237.859 46.176C236.387 45.152 235.139 43.904 234.115 42.432C233.155 40.96 232.675 39.072 232.675 36.768C232.675 35.04 233.027 33.44 233.731 31.968C234.435 30.496 235.395 29.216 236.611 28.128C237.891 27.04 239.363 26.176 241.027 25.536C242.691 24.896 244.483 24.576 246.403 24.576Z" fill="#FAF5F1"/>
<path d="M43.7793 97.3008L46.4746 101.285L46.7871 101.754C47.6204 102.978 48.3887 103.613 49.0918 103.658L49.4043 103.678C49.5215 103.684 49.5768 103.73 49.5703 103.814C49.5638 103.912 49.4173 104 49.1309 104.078C48.8509 104.156 48.5319 104.195 48.1738 104.195C47.5879 104.195 47.0605 104.036 46.5918 103.717C46.1296 103.391 45.6576 102.864 45.1758 102.135L42.7441 98.4238L42.6074 98.209C42.4512 97.9421 42.1973 97.8086 41.8457 97.8086H40.5469L40.332 97.8477C40.2539 97.8932 40.2148 97.9974 40.2148 98.1602V101.207L40.2246 101.598C40.2246 102.158 40.2507 102.542 40.3027 102.75C40.3613 102.952 40.4948 103.134 40.7031 103.297C40.9831 103.518 41.416 103.658 42.002 103.717C42.2363 103.743 42.3568 103.818 42.3633 103.941C42.3763 104.072 42.2689 104.137 42.041 104.137C41.9499 104.137 41.7578 104.124 41.4648 104.098C41.1979 104.072 40.7845 104.059 40.2246 104.059L39.2871 104.049L38.7793 104.059C38.5579 104.059 38.291 104.075 37.9785 104.107C37.7246 104.133 37.5488 104.146 37.4512 104.146C37.2884 104.146 37.207 104.078 37.207 103.941C37.207 103.844 37.2884 103.779 37.4512 103.746C37.972 103.648 38.3138 103.414 38.4766 103.043C38.6393 102.665 38.7207 101.926 38.7207 100.826V93.8145L38.7012 92.7988C38.7012 91.7832 38.3464 91.2168 37.6367 91.0996L37.1777 91.0312C36.9694 90.9922 36.8652 90.9141 36.8652 90.7969C36.8652 90.6602 36.9759 90.5918 37.1973 90.5918C37.2493 90.5918 37.4772 90.6048 37.8809 90.6309C38.1152 90.6504 38.4049 90.6602 38.75 90.6602C39.0495 90.6602 39.5605 90.6374 40.2832 90.5918C40.804 90.5592 41.263 90.543 41.6602 90.543C43.1576 90.543 44.2871 90.8262 45.0488 91.3926C45.8105 91.9525 46.1914 92.7891 46.1914 93.9023C46.1914 95.3672 45.3874 96.5 43.7793 97.3008ZM40.9082 97.0859H42.0117C42.8646 97.0859 43.5352 96.8516 44.0234 96.3828C44.5117 95.9141 44.7559 95.2728 44.7559 94.459C44.7559 93.515 44.4238 92.7402 43.7598 92.1348C43.0957 91.5228 42.2493 91.2168 41.2207 91.2168C40.8366 91.2168 40.5697 91.2819 40.4199 91.4121C40.2767 91.5358 40.2051 91.7637 40.2051 92.0957L40.2148 92.418V96.3828C40.2148 96.6888 40.2539 96.8841 40.332 96.9688C40.4167 97.0469 40.6087 97.0859 40.9082 97.0859ZM53.3398 92.2031V96.1289C53.3398 96.4284 53.3659 96.6107 53.418 96.6758C53.4766 96.7344 53.6458 96.7637 53.9258 96.7637H55.4297C56.1133 96.7637 56.6536 96.7246 57.0508 96.6465C57.4023 96.5749 57.6302 96.4805 57.7344 96.3633C57.8385 96.2461 57.9329 95.9727 58.0176 95.543C58.0501 95.3802 58.1315 95.3021 58.2617 95.3086C58.3854 95.3151 58.4473 95.403 58.4473 95.5723C58.4473 95.6178 58.444 95.6895 58.4375 95.7871C58.3854 96.4186 58.3594 96.9948 58.3594 97.5156C58.3594 97.9128 58.3789 98.3066 58.418 98.6973C58.431 98.8275 58.4375 98.9219 58.4375 98.9805C58.4375 99.1432 58.3757 99.2246 58.252 99.2246C58.1152 99.2246 58.0339 99.153 58.0078 99.0098L57.9492 98.7363C57.8711 98.3001 57.7148 98.0039 57.4805 97.8477C57.2461 97.6914 56.849 97.6133 56.2891 97.6133H54.1309C53.8118 97.6133 53.597 97.6458 53.4863 97.7109C53.3822 97.776 53.3301 97.9062 53.3301 98.1016L53.3398 98.4238V102.018C53.3398 102.571 53.4375 102.916 53.6328 103.053C53.8346 103.189 54.3392 103.258 55.1465 103.258C57.7051 103.258 59.349 102.682 60.0781 101.529C60.1497 101.419 60.2214 101.36 60.293 101.354C60.4102 101.347 60.4688 101.432 60.4688 101.607C60.4688 102.031 60.2311 102.535 59.7559 103.121C59.1829 103.824 58.4603 104.176 57.5879 104.176C57.3991 104.176 57.1452 104.163 56.8262 104.137C55.5827 104.02 54.554 103.961 53.7402 103.961C52.6009 103.961 51.7969 104 51.3281 104.078C51.0807 104.124 50.9115 104.146 50.8203 104.146C50.612 104.146 50.5078 104.075 50.5078 103.932C50.5078 103.821 50.5924 103.743 50.7617 103.697L51.1328 103.59C51.6016 103.46 51.8359 103.004 51.8359 102.223L51.8457 101.588V93.3359C51.8457 92.4049 51.7415 91.7799 51.5332 91.4609C51.3314 91.1354 50.9342 90.9727 50.3418 90.9727C50.153 90.9727 50.0586 90.9108 50.0586 90.7871C50.0586 90.6048 50.2051 90.5137 50.498 90.5137C50.6608 90.5137 50.8789 90.5299 51.1523 90.5625C52.0833 90.6667 53.2031 90.7188 54.5117 90.7188C55.306 90.7188 56.0091 90.7057 56.6211 90.6797L58.0078 90.6113C58.3919 90.5983 58.6263 90.5853 58.7109 90.5723C58.8867 90.5462 59.0169 90.5332 59.1016 90.5332C59.3164 90.5332 59.4238 90.6276 59.4238 90.8164C59.4238 90.875 59.4141 90.9499 59.3945 91.041C59.375 91.1322 59.349 91.3926 59.3164 91.8223L59.2773 92.3984C59.2448 92.776 59.2122 93.0137 59.1797 93.1113C59.1471 93.2025 59.0755 93.2513 58.9648 93.2578C58.8411 93.2643 58.7793 93.1667 58.7793 92.9648V92.7109C58.7793 92.5026 58.7402 92.304 58.6621 92.1152C58.5384 91.8223 58.2878 91.627 57.9102 91.5293C57.5326 91.4316 56.8392 91.3828 55.8301 91.3828H54.2969C53.8932 91.3828 53.6328 91.4349 53.5156 91.5391C53.3984 91.6367 53.3398 91.8581 53.3398 92.2031ZM66.1133 90.4062C66.8099 90.4062 67.3991 90.5072 67.8809 90.709L68.5547 90.9922C68.6133 91.0182 68.6719 91.0312 68.7305 91.0312C68.8086 91.0312 68.8867 90.9987 68.9648 90.9336L69.1016 90.8164C69.1211 90.7904 69.1569 90.7773 69.209 90.7773C69.3717 90.7708 69.4531 90.9303 69.4531 91.2559C69.4531 91.3665 69.4954 91.6953 69.5801 92.2422L69.7363 93.248C69.7689 93.4629 69.7852 93.5964 69.7852 93.6484C69.7852 93.8503 69.7168 93.9512 69.5801 93.9512C69.4759 93.9512 69.3717 93.7949 69.2676 93.4824C69.0332 92.7793 68.5547 92.1999 67.832 91.7441C67.1159 91.2884 66.3151 91.0605 65.4297 91.0605C64.7266 91.0605 64.1374 91.2689 63.6621 91.6855C63.1934 92.0957 62.959 92.61 62.959 93.2285C62.959 93.7754 63.112 94.2474 63.418 94.6445C63.6849 94.9831 63.9746 95.2305 64.2871 95.3867C64.6061 95.543 65.3841 95.8262 66.6211 96.2363C69.0299 97.0241 70.2344 98.3164 70.2344 100.113C70.2344 101.331 69.7917 102.327 68.9062 103.102C68.0208 103.876 66.8848 104.264 65.498 104.264C64.9967 104.264 64.4434 104.192 63.8379 104.049C63.2389 103.906 62.7995 103.74 62.5195 103.551C62.4023 103.473 62.3242 103.391 62.2852 103.307C62.2461 103.215 62.1875 102.988 62.1094 102.623C62.0964 102.571 62.015 102.275 61.8652 101.734C61.696 101.148 61.6113 100.732 61.6113 100.484C61.6113 100.289 61.6764 100.195 61.8066 100.201C61.9238 100.208 62.028 100.367 62.1191 100.68C62.3535 101.487 62.8483 102.164 63.6035 102.711C64.3587 103.258 65.179 103.531 66.0645 103.531C66.9629 103.531 67.7214 103.268 68.3398 102.74C68.9648 102.213 69.2773 101.572 69.2773 100.816C69.2773 100.094 68.9909 99.485 68.418 98.9902C68.125 98.7363 67.2786 98.375 65.8789 97.9062C64.4336 97.418 63.4082 96.8776 62.8027 96.2852C62.2038 95.6927 61.9043 94.9245 61.9043 93.9805C61.9043 92.9258 62.2949 92.0664 63.0762 91.4023C63.8639 90.7383 64.8763 90.4062 66.1133 90.4062ZM81.416 91.6953H78.6719C78.3854 91.6953 78.2031 91.7344 78.125 91.8125C78.0534 91.8906 78.0176 92.0827 78.0176 92.3887V101.959L78.0273 102.34C78.0599 103.102 78.4863 103.554 79.3066 103.697C79.5345 103.736 79.6484 103.811 79.6484 103.922C79.6484 104.065 79.5573 104.137 79.375 104.137C79.2969 104.137 79.1374 104.117 78.8965 104.078C78.7728 104.059 78.4798 104.049 78.0176 104.049L77.3047 104.039L76.543 104.049C76.2695 104.049 76.0384 104.059 75.8496 104.078C75.4785 104.117 75.2604 104.137 75.1953 104.137C75 104.137 74.9023 104.065 74.9023 103.922C74.9023 103.818 75.0098 103.753 75.2246 103.727C75.7259 103.661 76.0645 103.525 76.2402 103.316C76.416 103.102 76.5039 102.721 76.5039 102.174V92.4961L76.4941 92.2422C76.4941 92.0078 76.4583 91.8581 76.3867 91.793C76.3216 91.7279 76.1654 91.6953 75.918 91.6953H73.3301C72.8027 91.6953 72.4186 91.8027 72.1777 92.0176C71.9434 92.2259 71.7611 92.623 71.6309 93.209C71.5723 93.4629 71.4844 93.5866 71.3672 93.5801C71.25 93.5736 71.1914 93.4857 71.1914 93.3164C71.1914 93.1797 71.2305 92.929 71.3086 92.5645C71.4062 92.0957 71.4551 91.7083 71.4551 91.4023C71.4551 91.1029 71.4876 90.9076 71.5527 90.8164C71.6243 90.7188 71.7708 90.6699 71.9922 90.6699H82.5C82.8581 90.6699 83.0729 90.709 83.1445 90.7871C83.2227 90.8652 83.2617 91.0964 83.2617 91.4805C83.2617 91.8646 83.278 92.1445 83.3105 92.3203C83.3431 92.5417 83.3626 92.7012 83.3691 92.7988C83.3757 92.9941 83.3073 93.0983 83.1641 93.1113C83.0469 93.1178 82.9688 93.0169 82.9297 92.8086C82.8451 92.3464 82.7083 92.0469 82.5195 91.9102C82.3307 91.7669 81.9629 91.6953 81.416 91.6953ZM90.5176 98.8926H86.9824C86.5007 98.8926 86.2012 98.9316 86.084 99.0098C85.9668 99.0879 85.8105 99.3483 85.6152 99.791L84.9805 101.227C84.694 101.884 84.5508 102.372 84.5508 102.691C84.5508 102.997 84.6257 103.219 84.7754 103.355C84.9316 103.492 85.2344 103.609 85.6836 103.707C85.8789 103.746 85.9798 103.824 85.9863 103.941C85.9928 104.052 85.9017 104.107 85.7129 104.107C85.6413 104.107 85.5306 104.104 85.3809 104.098L84.4434 104.049C84.1309 104.036 83.7695 104.029 83.3594 104.029C83.1706 104.029 83.0241 104.033 82.9199 104.039C82.5879 104.065 82.4056 104.078 82.373 104.078C82.1973 104.078 82.1094 104.02 82.1094 103.902C82.1094 103.798 82.1647 103.73 82.2754 103.697L82.6367 103.59C82.7669 103.551 82.9427 103.395 83.1641 103.121C83.3854 102.841 83.5677 102.551 83.7109 102.252L83.9941 101.607L89.0137 90.4648C89.0983 90.2695 89.1927 90.1719 89.2969 90.1719C89.401 90.1719 89.4889 90.2663 89.5605 90.4551L93.7598 101.197L93.9746 101.725C94.2806 102.512 94.5345 103.004 94.7363 103.199C94.9382 103.388 95.3483 103.538 95.9668 103.648C96.1686 103.688 96.2663 103.769 96.2598 103.893C96.2533 104.003 96.1621 104.059 95.9863 104.059C95.9277 104.059 95.804 104.052 95.6152 104.039C95.2767 104.007 94.6745 103.99 93.8086 103.99C92.9036 103.99 92.3372 104.01 92.1094 104.049C91.9727 104.075 91.8717 104.088 91.8066 104.088C91.6374 104.088 91.5527 104.02 91.5527 103.883C91.5527 103.779 91.6341 103.71 91.7969 103.678L92.0996 103.609C92.4251 103.544 92.5879 103.323 92.5879 102.945C92.5879 102.6 92.3893 101.913 91.9922 100.885L91.5039 99.5957C91.3672 99.2376 91.2598 99.0326 91.1816 98.9805C91.1035 98.9219 90.8822 98.8926 90.5176 98.8926ZM90.6348 97.3301L89.1016 93.4629L89.0234 93.2578C88.9453 93.0495 88.8607 92.9421 88.7695 92.9355C88.724 92.929 88.6719 92.9909 88.6133 93.1211L86.709 97.3496C86.6243 97.5319 86.582 97.6523 86.582 97.7109C86.582 97.8802 86.7318 97.9648 87.0312 97.9648L87.2949 97.9746H90.2441C90.5697 97.9746 90.7324 97.8932 90.7324 97.7305C90.7324 97.6849 90.7161 97.61 90.6836 97.5059L90.6348 97.3301ZM107.441 98.3848V93.3262C107.441 92.5124 107.324 91.9232 107.09 91.5586C106.855 91.1875 106.458 90.9759 105.898 90.9238C105.71 90.9043 105.615 90.8327 105.615 90.709C105.615 90.5658 105.68 90.4974 105.811 90.5039C105.954 90.5104 106.162 90.5365 106.436 90.582C106.683 90.6211 106.979 90.6406 107.324 90.6406C108.053 90.6406 108.503 90.6309 108.672 90.6113C108.9 90.5918 109.043 90.582 109.102 90.582C109.225 90.582 109.287 90.6406 109.287 90.7578C109.287 90.8555 109.219 90.9336 109.082 90.9922C108.685 91.1549 108.428 91.3828 108.311 91.6758C108.193 91.9688 108.135 92.5221 108.135 93.3359V98.1699C108.135 99.9473 107.78 101.314 107.07 102.271C106.621 102.877 105.977 103.362 105.137 103.727C104.303 104.085 103.411 104.264 102.461 104.264C101.354 104.264 100.358 104.049 99.4727 103.619C98.5872 103.189 97.9395 102.607 97.5293 101.871C97.0671 101.025 96.8359 99.9212 96.8359 98.5605V93.5996L96.8164 93.043C96.8164 92.3464 96.7188 91.8678 96.5234 91.6074C96.3346 91.3405 95.9505 91.1647 95.3711 91.0801C95.1953 91.054 95.1074 90.9857 95.1074 90.875C95.1074 90.7188 95.2311 90.6406 95.4785 90.6406C95.6413 90.6406 95.8659 90.6471 96.1523 90.6602C96.4518 90.6797 96.6699 90.6895 96.8066 90.6895L97.5586 90.6797H98.3008C98.3789 90.6797 98.5612 90.6667 98.8477 90.6406C99.0885 90.6211 99.2546 90.6113 99.3457 90.6113C99.4954 90.6113 99.5703 90.6634 99.5703 90.7676C99.5703 90.8913 99.4661 90.9727 99.2578 91.0117C98.8802 91.0964 98.6263 91.2624 98.4961 91.5098C98.3724 91.7507 98.3105 92.1868 98.3105 92.8184L98.3301 93.4629V98.3848C98.3301 100.064 98.5905 101.262 99.1113 101.979C99.847 102.994 101.081 103.502 102.812 103.502C104.362 103.502 105.521 103.079 106.289 102.232C107.057 101.38 107.441 100.097 107.441 98.3848ZM117.803 97.3008L120.498 101.285L120.811 101.754C121.644 102.978 122.412 103.613 123.115 103.658L123.428 103.678C123.545 103.684 123.6 103.73 123.594 103.814C123.587 103.912 123.441 104 123.154 104.078C122.874 104.156 122.555 104.195 122.197 104.195C121.611 104.195 121.084 104.036 120.615 103.717C120.153 103.391 119.681 102.864 119.199 102.135L116.768 98.4238L116.631 98.209C116.475 97.9421 116.221 97.8086 115.869 97.8086H114.57L114.355 97.8477C114.277 97.8932 114.238 97.9974 114.238 98.1602V101.207L114.248 101.598C114.248 102.158 114.274 102.542 114.326 102.75C114.385 102.952 114.518 103.134 114.727 103.297C115.007 103.518 115.439 103.658 116.025 103.717C116.26 103.743 116.38 103.818 116.387 103.941C116.4 104.072 116.292 104.137 116.064 104.137C115.973 104.137 115.781 104.124 115.488 104.098C115.221 104.072 114.808 104.059 114.248 104.059L113.311 104.049L112.803 104.059C112.581 104.059 112.314 104.075 112.002 104.107C111.748 104.133 111.572 104.146 111.475 104.146C111.312 104.146 111.23 104.078 111.23 103.941C111.23 103.844 111.312 103.779 111.475 103.746C111.995 103.648 112.337 103.414 112.5 103.043C112.663 102.665 112.744 101.926 112.744 100.826V93.8145L112.725 92.7988C112.725 91.7832 112.37 91.2168 111.66 91.0996L111.201 91.0312C110.993 90.9922 110.889 90.9141 110.889 90.7969C110.889 90.6602 110.999 90.5918 111.221 90.5918C111.273 90.5918 111.501 90.6048 111.904 90.6309C112.139 90.6504 112.428 90.6602 112.773 90.6602C113.073 90.6602 113.584 90.6374 114.307 90.5918C114.827 90.5592 115.286 90.543 115.684 90.543C117.181 90.543 118.311 90.8262 119.072 91.3926C119.834 91.9525 120.215 92.7891 120.215 93.9023C120.215 95.3672 119.411 96.5 117.803 97.3008ZM114.932 97.0859H116.035C116.888 97.0859 117.559 96.8516 118.047 96.3828C118.535 95.9141 118.779 95.2728 118.779 94.459C118.779 93.515 118.447 92.7402 117.783 92.1348C117.119 91.5228 116.273 91.2168 115.244 91.2168C114.86 91.2168 114.593 91.2819 114.443 91.4121C114.3 91.5358 114.229 91.7637 114.229 92.0957L114.238 92.418V96.3828C114.238 96.6888 114.277 96.8841 114.355 96.9688C114.44 97.0469 114.632 97.0859 114.932 97.0859ZM131.357 98.8926H127.822C127.34 98.8926 127.041 98.9316 126.924 99.0098C126.807 99.0879 126.65 99.3483 126.455 99.791L125.82 101.227C125.534 101.884 125.391 102.372 125.391 102.691C125.391 102.997 125.465 103.219 125.615 103.355C125.771 103.492 126.074 103.609 126.523 103.707C126.719 103.746 126.82 103.824 126.826 103.941C126.833 104.052 126.742 104.107 126.553 104.107C126.481 104.107 126.37 104.104 126.221 104.098L125.283 104.049C124.971 104.036 124.609 104.029 124.199 104.029C124.01 104.029 123.864 104.033 123.76 104.039C123.428 104.065 123.245 104.078 123.213 104.078C123.037 104.078 122.949 104.02 122.949 103.902C122.949 103.798 123.005 103.73 123.115 103.697L123.477 103.59C123.607 103.551 123.783 103.395 124.004 103.121C124.225 102.841 124.408 102.551 124.551 102.252L124.834 101.607L129.854 90.4648C129.938 90.2695 130.033 90.1719 130.137 90.1719C130.241 90.1719 130.329 90.2663 130.4 90.4551L134.6 101.197L134.814 101.725C135.12 102.512 135.374 103.004 135.576 103.199C135.778 103.388 136.188 103.538 136.807 103.648C137.008 103.688 137.106 103.769 137.1 103.893C137.093 104.003 137.002 104.059 136.826 104.059C136.768 104.059 136.644 104.052 136.455 104.039C136.117 104.007 135.514 103.99 134.648 103.99C133.743 103.99 133.177 104.01 132.949 104.049C132.812 104.075 132.712 104.088 132.646 104.088C132.477 104.088 132.393 104.02 132.393 103.883C132.393 103.779 132.474 103.71 132.637 103.678L132.939 103.609C133.265 103.544 133.428 103.323 133.428 102.945C133.428 102.6 133.229 101.913 132.832 100.885L132.344 99.5957C132.207 99.2376 132.1 99.0326 132.021 98.9805C131.943 98.9219 131.722 98.8926 131.357 98.8926ZM131.475 97.3301L129.941 93.4629L129.863 93.2578C129.785 93.0495 129.701 92.9421 129.609 92.9355C129.564 92.929 129.512 92.9909 129.453 93.1211L127.549 97.3496C127.464 97.5319 127.422 97.6523 127.422 97.7109C127.422 97.8802 127.572 97.9648 127.871 97.9648L128.135 97.9746H131.084C131.41 97.9746 131.572 97.8932 131.572 97.7305C131.572 97.6849 131.556 97.61 131.523 97.5059L131.475 97.3301ZM149.365 94.4102V102.594C149.365 103.329 149.349 103.779 149.316 103.941C149.284 104.098 149.193 104.173 149.043 104.166C148.945 104.16 148.87 104.13 148.818 104.078L148.604 103.824L140.371 94.4102L140.273 94.3027C140.234 94.2637 140.189 94.2441 140.137 94.2441C140.013 94.2441 139.951 94.3906 139.951 94.6836V101.305L139.941 101.715L139.971 102.408C140.016 102.838 140.127 103.134 140.303 103.297C140.479 103.46 140.824 103.58 141.338 103.658C141.553 103.684 141.66 103.769 141.66 103.912C141.66 104.042 141.592 104.107 141.455 104.107C141.364 104.107 141.266 104.101 141.162 104.088C141.09 104.075 140.807 104.055 140.312 104.029L139.316 103.98L138.848 104C138.594 104 138.353 104.016 138.125 104.049C137.956 104.075 137.835 104.088 137.764 104.088C137.594 104.088 137.503 104.026 137.49 103.902C137.484 103.805 137.575 103.723 137.764 103.658C138.311 103.469 138.678 103.219 138.867 102.906C139.062 102.587 139.16 102.076 139.16 101.373V94.7324C139.16 93.6061 138.981 92.7207 138.623 92.0762C138.265 91.4251 137.747 91.054 137.07 90.9629C136.895 90.9368 136.807 90.862 136.807 90.7383C136.807 90.6146 136.878 90.5527 137.021 90.5527C137.054 90.5527 137.106 90.556 137.178 90.5625L137.578 90.5723L138.232 90.5918L138.389 90.582C138.545 90.5755 138.665 90.5723 138.75 90.5723C138.913 90.5723 139.076 90.6667 139.238 90.8555L148.223 101.031C148.366 101.194 148.457 101.272 148.496 101.266C148.561 101.259 148.597 101.197 148.604 101.08V96.2461L148.613 94.9277L148.496 92.6816C148.431 92.1283 148.268 91.7376 148.008 91.5098C147.754 91.2754 147.292 91.1029 146.621 90.9922C146.432 90.9596 146.338 90.8783 146.338 90.748C146.338 90.6243 146.432 90.5625 146.621 90.5625C146.706 90.5625 146.842 90.5723 147.031 90.5918C147.48 90.6439 148.083 90.6699 148.838 90.6699C149.242 90.6699 149.564 90.6504 149.805 90.6113C150.013 90.5723 150.173 90.5527 150.283 90.5527C150.452 90.5527 150.544 90.6211 150.557 90.7578C150.563 90.8424 150.498 90.9043 150.361 90.9434C149.964 91.041 149.701 91.2038 149.57 91.4316C149.447 91.6595 149.385 92.0859 149.385 92.7109V93.7656L149.365 94.4102ZM161.729 91.6953H158.984C158.698 91.6953 158.516 91.7344 158.438 91.8125C158.366 91.8906 158.33 92.0827 158.33 92.3887V101.959L158.34 102.34C158.372 103.102 158.799 103.554 159.619 103.697C159.847 103.736 159.961 103.811 159.961 103.922C159.961 104.065 159.87 104.137 159.688 104.137C159.609 104.137 159.45 104.117 159.209 104.078C159.085 104.059 158.792 104.049 158.33 104.049L157.617 104.039L156.855 104.049C156.582 104.049 156.351 104.059 156.162 104.078C155.791 104.117 155.573 104.137 155.508 104.137C155.312 104.137 155.215 104.065 155.215 103.922C155.215 103.818 155.322 103.753 155.537 103.727C156.038 103.661 156.377 103.525 156.553 103.316C156.729 103.102 156.816 102.721 156.816 102.174V92.4961L156.807 92.2422C156.807 92.0078 156.771 91.8581 156.699 91.793C156.634 91.7279 156.478 91.6953 156.23 91.6953H153.643C153.115 91.6953 152.731 91.8027 152.49 92.0176C152.256 92.2259 152.074 92.623 151.943 93.209C151.885 93.4629 151.797 93.5866 151.68 93.5801C151.562 93.5736 151.504 93.4857 151.504 93.3164C151.504 93.1797 151.543 92.929 151.621 92.5645C151.719 92.0957 151.768 91.7083 151.768 91.4023C151.768 91.1029 151.8 90.9076 151.865 90.8164C151.937 90.7188 152.083 90.6699 152.305 90.6699H162.812C163.171 90.6699 163.385 90.709 163.457 90.7871C163.535 90.8652 163.574 91.0964 163.574 91.4805C163.574 91.8646 163.59 92.1445 163.623 92.3203C163.656 92.5417 163.675 92.7012 163.682 92.7988C163.688 92.9941 163.62 93.0983 163.477 93.1113C163.359 93.1178 163.281 93.0169 163.242 92.8086C163.158 92.3464 163.021 92.0469 162.832 91.9102C162.643 91.7669 162.275 91.6953 161.729 91.6953ZM180.518 101.002C182.458 102.623 183.867 103.434 184.746 103.434C184.863 103.434 184.987 103.411 185.117 103.365C185.273 103.313 185.387 103.284 185.459 103.277C185.57 103.271 185.625 103.32 185.625 103.424C185.625 103.587 185.41 103.746 184.98 103.902C184.557 104.059 184.121 104.137 183.672 104.137C183.021 104.137 182.428 104.013 181.895 103.766C181.361 103.518 180.586 103.004 179.57 102.223C178.132 103.499 176.618 104.137 175.029 104.137C173.408 104.137 172.064 103.671 170.996 102.74C169.935 101.809 169.404 100.634 169.404 99.2148C169.404 98.043 169.814 97.0501 170.635 96.2363C171.084 95.7806 171.715 95.4551 172.529 95.2598C171.95 94.5111 171.66 93.7754 171.66 93.0527C171.66 92.278 171.95 91.653 172.529 91.1777C173.115 90.7025 173.883 90.4648 174.834 90.4648C175.316 90.4648 175.82 90.5658 176.348 90.7676L176.807 90.9434L176.904 90.9629C176.956 90.9564 177.025 90.9206 177.109 90.8555C177.174 90.8034 177.23 90.7773 177.275 90.7773C177.451 90.7708 177.539 91.0052 177.539 91.4805L177.568 92.0176L177.617 92.7891C177.624 92.9518 177.627 93.0527 177.627 93.0918C177.627 93.235 177.555 93.3066 177.412 93.3066C177.327 93.3066 177.259 93.2285 177.207 93.0723C177.025 92.5384 176.65 92.0632 176.084 91.6465C175.524 91.2233 174.974 91.0117 174.434 91.0117C173.978 91.0117 173.587 91.1517 173.262 91.4316C172.936 91.7116 172.773 92.0501 172.773 92.4473C172.773 92.8184 172.926 93.2415 173.232 93.7168C173.538 94.1921 174.056 94.8073 174.785 95.5625L177.246 98.1016C177.884 98.7591 178.789 99.5892 179.961 100.592C180.299 100.025 180.469 99.3939 180.469 98.6973C180.469 98.1829 180.368 97.7533 180.166 97.4082C179.964 97.0632 179.691 96.8581 179.346 96.793L178.887 96.7051C178.691 96.666 178.597 96.5781 178.604 96.4414C178.61 96.3503 178.682 96.3047 178.818 96.3047C178.87 96.3047 178.958 96.3145 179.082 96.334C179.277 96.36 179.84 96.373 180.771 96.373C181.071 96.373 181.341 96.36 181.582 96.334C181.81 96.3145 181.973 96.3047 182.07 96.3047C182.188 96.3047 182.249 96.3568 182.256 96.4609C182.262 96.5651 182.174 96.6497 181.992 96.7148C181.784 96.793 181.637 96.9232 181.553 97.1055C181.475 97.2878 181.416 97.6198 181.377 98.1016C181.279 99.2018 180.993 100.169 180.518 101.002ZM178.965 101.754C178.757 101.572 178.623 101.451 178.564 101.393L177.627 100.602C177.1 100.146 176.403 99.4785 175.537 98.5996C174.678 97.7142 174.001 96.972 173.506 96.373C173.102 95.8913 172.76 95.6504 172.48 95.6504C172.044 95.6504 171.611 95.9141 171.182 96.4414C170.739 96.9753 170.518 97.6328 170.518 98.4141C170.518 99.3711 170.895 100.286 171.65 101.158C172.686 102.35 174.007 102.945 175.615 102.945C176.95 102.945 178.066 102.548 178.965 101.754ZM194.678 92.2227V100.367L194.668 101.314L194.697 102.135C194.769 102.923 195.062 103.382 195.576 103.512C195.934 103.609 196.204 103.658 196.387 103.658C196.582 103.658 196.683 103.717 196.689 103.834C196.702 104.003 196.589 104.088 196.348 104.088C196.237 104.088 196.019 104.075 195.693 104.049C195.485 104.036 195.146 104.029 194.678 104.029L193.984 104.01L193.223 104.02C192.839 104.02 192.549 104.033 192.354 104.059C192.1 104.091 191.914 104.107 191.797 104.107C191.628 104.107 191.543 104.042 191.543 103.912C191.543 103.788 191.65 103.71 191.865 103.678C192.373 103.6 192.718 103.313 192.9 102.818C193.089 102.324 193.184 101.432 193.184 100.143V94.2148C193.184 92.8477 193.102 91.985 192.939 91.627C192.777 91.2624 192.37 91.0443 191.719 90.9727C191.543 90.9596 191.458 90.8945 191.465 90.7773C191.471 90.6276 191.598 90.5527 191.846 90.5527C191.969 90.5527 192.135 90.569 192.344 90.6016C192.754 90.6602 193.092 90.6895 193.359 90.6895C193.776 90.6895 194.382 90.6536 195.176 90.582C195.586 90.5495 195.921 90.5332 196.182 90.5332C197.542 90.5332 198.646 90.862 199.492 91.5195C200.345 92.1706 200.771 93.0234 200.771 94.0781C200.771 95.3542 200.251 96.36 199.209 97.0957C198.428 97.6426 197.601 97.916 196.729 97.916C196.318 97.916 195.941 97.8704 195.596 97.7793C195.257 97.6882 195.094 97.5905 195.107 97.4863C195.12 97.4082 195.182 97.3691 195.293 97.3691C195.345 97.3691 195.41 97.3789 195.488 97.3984C195.638 97.444 195.879 97.4668 196.211 97.4668C197.148 97.4668 197.897 97.2096 198.457 96.6953C199.023 96.181 199.307 95.4974 199.307 94.6445C199.307 93.6615 198.936 92.8477 198.193 92.2031C197.451 91.5586 196.51 91.2363 195.371 91.2363C195.111 91.2363 194.932 91.2852 194.834 91.3828C194.736 91.4805 194.688 91.666 194.688 91.9395L194.678 92.2227ZM213.965 98.3848V93.3262C213.965 92.5124 213.848 91.9232 213.613 91.5586C213.379 91.1875 212.982 90.9759 212.422 90.9238C212.233 90.9043 212.139 90.8327 212.139 90.709C212.139 90.5658 212.204 90.4974 212.334 90.5039C212.477 90.5104 212.686 90.5365 212.959 90.582C213.206 90.6211 213.503 90.6406 213.848 90.6406C214.577 90.6406 215.026 90.6309 215.195 90.6113C215.423 90.5918 215.566 90.582 215.625 90.582C215.749 90.582 215.811 90.6406 215.811 90.7578C215.811 90.8555 215.742 90.9336 215.605 90.9922C215.208 91.1549 214.951 91.3828 214.834 91.6758C214.717 91.9688 214.658 92.5221 214.658 93.3359V98.1699C214.658 99.9473 214.303 101.314 213.594 102.271C213.145 102.877 212.5 103.362 211.66 103.727C210.827 104.085 209.935 104.264 208.984 104.264C207.878 104.264 206.882 104.049 205.996 103.619C205.111 103.189 204.463 102.607 204.053 101.871C203.59 101.025 203.359 99.9212 203.359 98.5605V93.5996L203.34 93.043C203.34 92.3464 203.242 91.8678 203.047 91.6074C202.858 91.3405 202.474 91.1647 201.895 91.0801C201.719 91.054 201.631 90.9857 201.631 90.875C201.631 90.7188 201.755 90.6406 202.002 90.6406C202.165 90.6406 202.389 90.6471 202.676 90.6602C202.975 90.6797 203.193 90.6895 203.33 90.6895L204.082 90.6797H204.824C204.902 90.6797 205.085 90.6667 205.371 90.6406C205.612 90.6211 205.778 90.6113 205.869 90.6113C206.019 90.6113 206.094 90.6634 206.094 90.7676C206.094 90.8913 205.99 90.9727 205.781 91.0117C205.404 91.0964 205.15 91.2624 205.02 91.5098C204.896 91.7507 204.834 92.1868 204.834 92.8184L204.854 93.4629V98.3848C204.854 100.064 205.114 101.262 205.635 101.979C206.37 102.994 207.604 103.502 209.336 103.502C210.885 103.502 212.044 103.079 212.812 102.232C213.581 101.38 213.965 100.097 213.965 98.3848ZM219.268 101.051V93.5117C219.268 92.6523 219.141 92.0208 218.887 91.6172C218.633 91.207 218.239 91.002 217.705 91.002C217.438 91.002 217.305 90.9303 217.305 90.7871C217.305 90.6374 217.435 90.5625 217.695 90.5625C217.747 90.5625 217.913 90.569 218.193 90.582C218.389 90.5951 218.659 90.6016 219.004 90.6016C219.486 90.6016 219.857 90.5951 220.117 90.582L221.211 90.5137C221.556 90.4941 221.882 90.4844 222.188 90.4844C223.626 90.4844 224.756 90.7708 225.576 91.3438C226.403 91.9167 226.816 92.7044 226.816 93.707C226.816 94.7422 226.387 95.5462 225.527 96.1191L225.107 96.4121C225.01 96.4707 224.964 96.5195 224.971 96.5586C224.977 96.6237 225.146 96.6921 225.479 96.7637C226.195 96.9264 226.784 97.3171 227.246 97.9355C227.708 98.554 227.939 99.2637 227.939 100.064C227.939 101.262 227.497 102.252 226.611 103.033C225.732 103.808 224.613 104.195 223.252 104.195L222.5 104.166L221.592 104.127L220.801 104.078C220.28 104.046 219.867 104.029 219.561 104.029C219.255 104.029 218.994 104.042 218.779 104.068C218.467 104.107 218.245 104.127 218.115 104.127C217.933 104.127 217.842 104.055 217.842 103.912C217.842 103.801 217.939 103.733 218.135 103.707C218.688 103.629 219.017 103.323 219.121 102.789C219.219 102.32 219.268 101.741 219.268 101.051ZM221.426 96.4707H223.037C224.671 96.4707 225.488 95.735 225.488 94.2637C225.488 93.3587 225.14 92.597 224.443 91.9785C223.747 91.36 222.887 91.0508 221.865 91.0508C221.416 91.0508 221.12 91.1159 220.977 91.2461C220.833 91.3698 220.762 91.6335 220.762 92.0371V95.9531C220.762 96.181 220.798 96.3242 220.869 96.3828C220.947 96.4414 221.133 96.4707 221.426 96.4707ZM221.299 97.1641C221.064 97.1641 220.915 97.1868 220.85 97.2324C220.791 97.2715 220.762 97.3724 220.762 97.5352V102.047L220.742 102.496L220.801 102.877C220.892 103.157 221.126 103.359 221.504 103.482C221.888 103.6 222.477 103.658 223.271 103.658C224.294 103.658 225.088 103.391 225.654 102.857C226.221 102.317 226.504 101.565 226.504 100.602C226.504 99.612 226.191 98.7917 225.566 98.1406C224.948 97.4896 224.167 97.1641 223.223 97.1641H221.299Z" fill="#FAF5F1"/>
</svg>
