<svg width="58" height="73" viewBox="0 0 58 73" fill="none" xmlns="http://www.w3.org/2000/svg">
<path d="M29 0.684814C21.5269 0.693618 14.3625 3.6621 9.07819 8.93908C3.79392 14.2161 0.821346 21.3707 0.81253 28.8334C0.803579 34.932 2.79842 40.8651 6.49103 45.7226C6.49103 45.7226 7.25978 46.7334 7.38534 46.8793L29 72.3359L50.625 46.8665C50.7377 46.7308 51.509 45.7226 51.509 45.7226L51.5116 45.7149C55.2024 40.8596 57.1963 34.9292 57.1875 28.8334C57.1787 21.3707 54.2061 14.2161 48.9219 8.93908C43.6376 3.6621 36.4731 0.693618 29 0.684814ZM29 39.0693C26.9728 39.0693 24.991 38.469 23.3054 37.3442C21.6198 36.2195 20.3061 34.6209 19.5303 32.7505C18.7545 30.8802 18.5515 28.8221 18.947 26.8365C19.3425 24.851 20.3187 23.0271 21.7522 21.5956C23.1857 20.1641 25.0121 19.1892 27.0004 18.7943C28.9887 18.3993 31.0496 18.602 32.9225 19.3767C34.7955 20.1515 36.3963 21.4634 37.5226 23.1467C38.6489 24.83 39.25 26.809 39.25 28.8334C39.2466 31.5471 38.1656 34.1487 36.2441 36.0675C34.3226 37.9864 31.7175 39.0659 29 39.0693Z" fill="#EA923A"/>
</svg>
