<svg width="56" height="57" viewBox="0 0 56 57" fill="none" xmlns="http://www.w3.org/2000/svg">
<path d="M28 0.399902C12.5375 0.399902 0 12.9374 0 28.3999C0 43.8624 12.5375 56.3999 28 56.3999C43.4625 56.3999 56 43.8624 56 28.3999C56 12.9374 43.4625 0.399902 28 0.399902ZM41.4562 21.5062C41.475 21.7999 41.475 22.1062 41.475 22.4062C41.475 31.5812 34.4875 42.1499 21.7188 42.1499C17.7812 42.1499 14.1312 41.0062 11.0562 39.0374C11.6187 39.0999 12.1563 39.1249 12.7313 39.1249C15.9813 39.1249 18.9688 38.0249 21.35 36.1624C18.3 36.0999 15.7375 34.0999 14.8625 31.3499C15.9312 31.5062 16.8937 31.5062 17.9937 31.2249C16.4233 30.9058 15.0117 30.0529 13.9989 28.811C12.986 27.5692 12.4343 26.0149 12.4375 24.4124V24.3249C13.3562 24.8437 14.4375 25.1624 15.5688 25.2062C14.6178 24.5724 13.8379 23.7137 13.2982 22.7063C12.7585 21.699 12.4758 20.574 12.475 19.4312C12.475 18.1374 12.8125 16.9562 13.4188 15.9312C15.1619 18.077 17.3371 19.832 19.8029 21.0822C22.2687 22.3323 24.97 23.0496 27.7313 23.1874C26.75 18.4687 30.275 14.6499 34.5125 14.6499C36.5125 14.6499 38.3125 15.4874 39.5812 16.8374C41.15 16.5437 42.65 15.9562 43.9875 15.1687C43.4688 16.7749 42.3812 18.1312 40.9375 18.9874C42.3375 18.8374 43.6875 18.4499 44.9375 17.9062C43.9938 19.2937 42.8125 20.5249 41.4562 21.5062Z" fill="#EA923A"/>
</svg>
